<?xml version="1.0" encoding="UTF-8"?>
<svg width="660px" height="695px" viewBox="0 0 660 695" version="1.1" xmlns="http://www.w3.org/2000/svg" xmlns:xlink="http://www.w3.org/1999/xlink">
    <!-- Generator: Sketch 59.1 (86144) - https://sketch.com -->
    <title>Group</title>
    <desc>Created with Sketch.</desc>
    <g id="Page-1" stroke="none" stroke-width="1" fill="none" fill-rule="evenodd" opacity="0.03">
        <g id="Desktop-HD" transform="translate(0.000000, -4313.000000)" fill="#FFFFFF" fill-rule="nonzero">
            <g id="footer" transform="translate(0.000000, 4313.000000)">
                <g id="Group" transform="translate(-125.000000, -55.000000)">
                    <path d="M674.385319,825 C668.778903,825 663.386291,822.7422 659.442795,818.74946 L31.2628983,182.858007 C0.261318873,151.486475 -8.43337697,106.710742 8.55216273,65.9990493 C25.5377024,25.2873563 63.4997898,0 107.590925,0 C113.197341,0 118.589953,2.25779967 122.533449,6.25054014 L750.737102,642.165759 C781.738681,673.537292 790.433377,718.313024 773.447837,759.024717 C756.438542,799.73641 718.476454,825 674.385319,825 Z M99.3000811,42.5179328 C72.0281936,45.7263849 54.7100699,64.525538 47.321954,82.2076744 C39.2211582,101.624752 38.5797462,130.500821 61.1479458,153.340247 L682.699919,782.5296 C709.971806,779.321148 727.28993,760.521995 734.678046,742.839858 C742.778842,723.422781 743.420254,694.546712 720.852054,671.707285 L99.3000811,42.5179328 Z" id="Shape"></path>
                    <path d="M675.963641,825 L110.121536,825 C65.8237747,825 27.6811212,799.609051 10.5941631,758.755513 C-6.46903022,717.878223 2.25268556,672.939331 33.4084605,641.444103 L274.146828,397.985518 C282.036772,390.004827 296.129354,390.004827 304.043063,397.985518 L407.420349,502.542074 C415.500412,510.712781 415.500412,523.871421 407.420349,532.06588 L304.613421,636.028634 L530.64132,636.028634 C536.249834,636.028634 541.644465,638.28508 545.589437,642.275425 L690.935524,789.253154 C696.900512,795.286177 698.635349,804.288206 695.379559,812.102633 C692.100004,819.91706 684.447708,825 675.963641,825 Z M289.094946,442.639386 L63.304696,670.96791 C40.5854582,693.959901 41.2033454,723.032419 49.3784687,742.580362 C57.5535919,762.128305 77.8012808,783.006363 110.121536,783.006363 L625.677127,783.006363 L521.872074,678.022271 L254.303142,678.022271 C245.819075,678.022271 238.190545,672.939331 234.910989,665.124904 C231.631434,657.310477 233.390036,648.308448 239.355024,642.275425 L362.932469,517.315853 L289.094946,442.639386 Z" id="Shape"></path>
                    <path d="M703.1894,0 L197,0 L300.877627,105.118242 L615.887484,105.118242 L459.904572,266.053795 L547.824807,355 L761.263843,139.055738 C812.227614,87.4479132 775.699218,0 703.1894,0 Z" id="Path"></path>
                </g>
            </g>
        </g>
    </g>
</svg>