<?xml version="1.0" encoding="UTF-8"?>
<svg width="69px" height="24px" viewBox="0 0 69 24" version="1.1" xmlns="http://www.w3.org/2000/svg" xmlns:xlink="http://www.w3.org/1999/xlink">
    <!-- Generator: Sketch 59.1 (86144) - https://sketch.com -->
    <title>Group</title>
    <desc>Created with Sketch.</desc>
    <g id="Page-1" stroke="none" stroke-width="1" fill="none" fill-rule="evenodd">
        <g id="Desktop-HD" transform="translate(-134.000000, -36.000000)" fill="#FFFFFF" fill-rule="nonzero">
            <g id="hero">
                <g id="Navigation" transform="translate(134.000000, 36.000000)">
                    <g id="Group">
                        <g transform="translate(29.914040, 1.650430)">
                            <polygon id="Path" points="0.0199426934 15.6226934 7.10234957 6.867851 0.511633238 6.867851 0.511633238 4.63014327 10.742235 4.63014327 10.742235 6.867851 3.63507163 15.6226934 10.9148424 15.6226934 10.9148424 17.8604011 0.0199426934 17.8604011"></polygon>
                            <path d="M14.9728367,12.0818338 C15.1695129,14.5409742 16.8914613,15.7464756 18.5632092,15.7464756 C20.0877937,15.7464756 21.2932951,15.1310029 21.8097421,13.9021203 L24.6869914,13.9021203 C24.0722063,16.0167335 22.1047564,18.1815473 18.6863037,18.1815473 C14.4316332,18.1815473 11.9972493,14.9350143 11.9972493,11.1479656 C11.9972493,7.16424069 14.7273352,4.33581662 18.4896275,4.33581662 C22.5469341,4.33581662 25.0803438,7.63117479 24.8341547,12.0825215 L14.9728367,12.0825215 L14.9728367,12.0818338 Z M14.9728367,9.9417765 L21.8585673,9.9417765 C21.7849857,7.87598854 20.2108883,6.62234957 18.4896275,6.62234957 C17.112894,6.62234957 15.2190258,7.43381089 14.9728367,9.9417765 Z" id="Shape"></path>
                            <path d="M35.927106,0.0316332378 L38.8538682,0.0316332378 L38.8538682,17.8610888 L35.927106,17.8610888 L35.927106,16.1150716 C35.1404011,17.4189112 33.7629799,18.1808596 31.9922063,18.1808596 C28.8687679,18.1808596 26.2377077,15.5002865 26.2377077,11.245616 C26.2377077,7.01570201 28.8687679,4.33512894 31.9922063,4.33512894 C33.7629799,4.33512894 35.1397135,5.09776504 35.927106,6.40091691 L35.927106,0.0316332378 Z M32.6317479,6.72068768 C30.6890544,6.72068768 29.2868768,8.46670487 29.2868768,11.245616 C29.2868768,14.0492837 30.6890544,15.7953009 32.6317479,15.7953009 C34.5496848,15.7953009 36.0502006,14.2954728 36.0502006,11.245616 C36.0502006,8.19644699 34.5503725,6.72068768 32.6317479,6.72068768 Z" id="Shape"></path>
                        </g>
                        <g>
                            <path d="M19.5218338,23.9353582 C19.3595415,23.9353582 19.2034384,23.8700287 19.0892837,23.7544986 L0.904985673,5.35495702 C0.00756446991,4.44722063 -0.244126074,3.15163324 0.24756447,1.97363897 C0.739255014,0.795644699 1.83816619,0.0639541547 3.11449857,0.0639541547 C3.27679083,0.0639541547 3.43289398,0.129283668 3.54704871,0.244813754 L21.7320344,18.645043 C22.6294556,19.5527794 22.8811461,20.8483668 22.3894556,22.026361 C21.8970774,23.2043553 20.7981662,23.9353582 19.5218338,23.9353582 Z M2.87449857,1.29421203 C2.08504298,1.38704871 1.58372493,1.93100287 1.36985673,2.4426361 C1.13535817,3.00446991 1.11679083,3.84 1.77008596,4.5008596 L19.7625215,22.7064756 C20.5519771,22.613639 21.0532951,22.0696848 21.2671633,21.5580516 C21.5016619,20.9962178 21.5202292,20.1606877 20.8669341,19.4998281 L2.87449857,1.29421203 Z" id="Shape"></path>
                            <path d="M19.5218338,23.9353582 L3.14819484,23.9353582 C1.86636103,23.9353582 0.762636103,23.2002292 0.268194842,22.0174212 C-0.225558739,20.8339255 0.0268194842,19.5328367 0.928366762,18.6209742 L7.89455587,11.5722636 C8.12286533,11.3412034 8.53065903,11.3412034 8.75965616,11.5722636 L11.7510602,14.5994269 C11.9848711,14.8359885 11.9848711,15.2169628 11.7510602,15.454212 L8.77616046,18.4641834 L15.3166762,18.4641834 C15.4789685,18.4641834 15.6350716,18.5295129 15.7492264,18.645043 L19.9550716,22.9004011 C20.1276791,23.0750716 20.1778797,23.335702 20.0836676,23.5619484 C19.9887679,23.7881948 19.7673352,23.9353582 19.5218338,23.9353582 Z M8.32710602,12.8651003 L1.79346705,19.4757593 C1.13604585,20.1414327 1.1539255,20.9831519 1.39048711,21.5491117 C1.62704871,22.1150716 2.21295129,22.7195415 3.14819484,22.7195415 L18.0667049,22.7195415 L15.0629226,19.68 L7.32034384,19.68 C7.07484241,19.68 6.85409742,19.5328367 6.75919771,19.3065903 C6.66429799,19.0803438 6.71518625,18.8197135 6.8877937,18.645043 L10.4637249,15.0271633 L8.32710602,12.8651003 Z" id="Shape"></path>
                            <path d="M20.3326074,0.0646418338 L5.69535817,0.0646418338 L8.6991404,3.10418338 L17.8081375,3.10418338 L13.2976504,7.75770774 L15.84,10.3296275 L22.0119198,4.08550143 C23.485616,2.59323782 22.429341,0.0646418338 20.3326074,0.0646418338 Z" id="Path"></path>
                        </g>
                    </g>
                </g>
            </g>
        </g>
    </g>
</svg>